<?xml version="1.0" encoding="utf-8"?>
<!-- Generator: Adobe Illustrator 20.1.0, SVG Export Plug-In . SVG Version: 6.00 Build 0)  -->
<svg version="1.1" id="Layer_1" xmlns="http://www.w3.org/2000/svg" xmlns:xlink="http://www.w3.org/1999/xlink" x="0px" y="0px"
	 viewBox="0 0 800 800" style="enable-background:new 0 0 800 800;" xml:space="preserve">
<style type="text/css">
	.st0{fill:#FFFFFF;stroke:#000000;stroke-width:3;stroke-miterlimit:10;}
	.st1{fill:none;stroke:#1C5D2F;stroke-width:45;stroke-miterlimit:10;}
</style>
<g id="tile1">
	<rect x="-0.1" y="0" class="st0" width="200" height="200"/>
	<line class="st1" x1="-0.1" y1="92.1" x2="199.9" y2="92.1"/>
	<line class="st1" x1="99.9" y1="200" x2="99.9" y2="81.8"/>
</g>
<g id="tile2">
	<rect x="200.1" y="0" class="st0" width="200" height="200"/>
	<line id="vertical-line_1_" class="st1" x1="300.1" y1="0" x2="300.1" y2="200"/>
</g>
<g id="tile3">
	<rect x="400.1" y="0" class="st0" width="200" height="200"/>
	<line class="st1" x1="400.1" y1="100" x2="519.9" y2="100"/>
	<line class="st1" x1="500.1" y1="200" x2="500.1" y2="77.6"/>
</g>
<g id="tile4">
	<rect x="600.1" y="0" class="st0" width="200" height="200"/>
	<line id="horiz-line_1_" class="st1" x1="600.1" y1="100" x2="800.1" y2="100"/>
</g>
<g id="tile3_1_">
	<rect x="0.1" y="200" transform="matrix(-1 -1.224647e-16 1.224647e-16 -1 200.1169 600)" class="st0" width="200" height="200"/>
	<line class="st1" x1="200" y1="300" x2="80.2" y2="300"/>
	<line class="st1" x1="100.1" y1="200" x2="100.1" y2="322.4"/>
</g>
<g id="tile3_2_">
	
		<rect x="199.8" y="200" transform="matrix(-1.836970e-16 1 -1 -1.836970e-16 599.8248 0.1751)" class="st0" width="200" height="200"/>
	<line class="st1" x1="299.8" y1="200" x2="299.8" y2="319.8"/>
	<line class="st1" x1="199.8" y1="300" x2="322.3" y2="300"/>
</g>
<g id="tile3_3_">
	
		<rect x="400.1" y="200" transform="matrix(-1 -1.224647e-16 1.224647e-16 -1 1000.1169 599.9999)" class="st0" width="200" height="200"/>
	<line class="st1" x1="600" y1="300" x2="480.2" y2="300"/>
	<line class="st1" x1="500.1" y1="200" x2="500.1" y2="322.4"/>
</g>
<g id="tile5_1_">
	<rect x="600.1" y="200" class="st0" width="200" height="200"/>
	<g id="plus-path_2_">
		<line class="st1" x1="700.1" y1="200" x2="700.1" y2="400"/>
		<line class="st1" x1="600.1" y1="300" x2="800.1" y2="300"/>
	</g>
</g>
<g id="tile3_8_">
	
		<rect x="0.1" y="400" transform="matrix(-1.836970e-16 1 -1 -1.836970e-16 600.0585 399.9416)" class="st0" width="200" height="200"/>
	<line class="st1" x1="100.1" y1="400" x2="100.1" y2="519.8"/>
	<line class="st1" x1="0.1" y1="500" x2="122.5" y2="500"/>
</g>
<g id="tile3_7_">
	
		<rect x="199.8" y="400" transform="matrix(-1.836970e-16 1 -1 -1.836970e-16 799.8249 200.1751)" class="st0" width="200" height="200"/>
	<line class="st1" x1="299.8" y1="400" x2="299.8" y2="519.8"/>
	<line class="st1" x1="199.8" y1="500" x2="322.3" y2="500"/>
</g>
<g id="tile3_6_">
	
		<rect x="400.1" y="400" transform="matrix(6.123234e-17 -1 1 6.123234e-17 5.849114e-02 1000.0584)" class="st0" width="200" height="200"/>
	<line class="st1" x1="500.1" y1="600" x2="500.1" y2="480.2"/>
	<line class="st1" x1="600.1" y1="500" x2="477.6" y2="500"/>
</g>
<g id="tile5_2_">
	<rect x="600.1" y="400" class="st0" width="200" height="200"/>
	<g id="plus-path_3_">
		<line class="st1" x1="700.1" y1="400" x2="700.1" y2="600"/>
		<line class="st1" x1="600.1" y1="500" x2="800.1" y2="500"/>
	</g>
</g>
<g id="tile1_1_">
	<rect x="400.1" y="600" class="st0" width="200" height="200"/>
	<line class="st1" x1="400.1" y1="692.1" x2="600.1" y2="692.1"/>
	<line class="st1" x1="500.1" y1="800" x2="500.1" y2="681.8"/>
</g>
<g id="tile2_1_">
	<rect x="200.1" y="600" class="st0" width="200" height="200"/>
	<line id="vertical-line_2_" class="st1" x1="300.1" y1="600" x2="300.1" y2="800"/>
</g>
<g id="tile4_7_">
	<rect x="600.1" y="600" class="st0" width="200" height="200"/>
	<line id="horiz-line_10_" class="st1" x1="600.1" y1="700" x2="800.1" y2="700"/>
</g>
<g id="tile5_3_">
	<rect x="0.1" y="600" class="st0" width="200" height="200"/>
	<g id="plus-path_4_">
		<line class="st1" x1="100.1" y1="600" x2="100.1" y2="800"/>
		<line class="st1" x1="0.1" y1="700" x2="200.1" y2="700"/>
	</g>
</g>
</svg>
